{"title":"Cradle 2 the Grave-720p MP4 AAC x264 BRRip 2003-CC","uid":7653550,"size":2728842575,"categoryP":"video","categoryS":"hd___movies","magnet":"?xt=urn:btih:e0cac6f3811ccd6bd25eb9af9e2f728c2e81cf61&amp;dn=Cradle+2+the+Grave-720p+MP4+AAC+x264+BRRip+2003-CC&amp;tr=udp%3A%2F%2Ftracker.openbittorrent.com%3A80&amp;tr=udp%3A%2F%2Fopen.demonii.com%3A1337&amp;tr=udp%3A%2F%2Ftracker.coppersurfer.tk%3A6969&amp;tr=udp%3A%2F%2Fexodus.desync.com%3A6969","seeders":0,"leechers":2,"uploader":"Caveman44","files":-1,"time":1348092053,"description":" &lt;a href=&quot;http://www.imdb.com/title/tt0306685&quot; rel=&quot;nofollow&quot; target=&quot;_NEW&quot;&gt;http://www.imdb.com/title/tt0306685&lt;/a&gt;\n\nSource: Cradle.2.the.Grave.2003.BluRay.720p.DTS.x264-CHD Thanks!\n\nSubs: Arabic, Danish, Dutch, English, Finnish, Indonesian, Norwegian and  Swedish.\n\nSample and Screens included.\n\nGeneral\nComplete name                            : Cradle 2 the Grave-720p MP4 AAC x264 BRRip 2003-CC.mp4\nFormat                                   : MPEG-4\nFormat profile                           : Base Media\nCodec ID                                 : isom\nFile size                                : 2.51 GiB\nDuration                                 : 1h 41mn\nOverall bit rate mode                    : Variable\nOverall bit rate                         : 3 554 Kbps\nEncoded date                             : UTC 2012-09-02 17:32:12\n\nVideo\nID                                       : 1\nFormat                                   : AVC\nFormat/Info                              : Advanced Video Codec\nFormat profile                           : &lt;a class=&quot;__cf_email__&quot; href=&quot;/cdn-cgi/l/email-protection&quot; data-cfemail=&quot;6c24050b042c205f425d&quot;&gt;[email&amp;#160;protected]&lt;/a&gt;&lt;script cf-hash='f9e31' type=&quot;text/javascript&quot;&gt;\n/* &lt;![CDATA[ */!function(){try{var t=&quot;currentScript&quot;in document?document.currentScript:function(){for(var t=document.getElementsByTagName(&quot;script&quot;),e=t.length;e--;)if(t[e].getAttribute(&quot;cf-hash&quot;))return t[e]}();if(t&amp;&amp;t.previousSibling){var e,r,n,i,c=t.previousSibling,a=c.getAttribute(&quot;data-cfemail&quot;);if(a){for(e=&quot;&quot;,r=parseInt(a.substr(0,2),16),n=2;a.length-n;n+=2)i=parseInt(a.substr(n,2),16)^r,e+=String.fromCharCode(i);e=document.createTextNode(e),c.parentNode.replaceChild(e,c)}}}catch(u){}}();/* ]]&gt; */&lt;/script&gt;\nFormat settings, CABAC                   : Yes\nFormat settings, ReFrames                : 5 frames\nCodec ID                                 : avc1\nCodec ID/Info                            : Advanced Video Coding\nDuration                                 : 1h 41mn\nBit rate                                 : 3 161 Kbps\nMaximum bit rate                         : 21.7 Mbps\nWidth                                    : 1 280 pixels\nHeight                                   : 528 pixels\nDisplay aspect ratio                     : 2.40:1\nFrame rate mode                          : Variable\nFrame rate                               : 23.976 fps\nMinimum frame rate                       : 19.048 fps\nMaximum frame rate                       : 24.390 fps\nColor space                              : YUV\nChroma subsampling                       : 4:2:0\nBit depth                                : 8 bits\nScan type                                : Progressive\nBits/(Pixel*Frame)                       : 0.195\nStream size                              : 2.24 GiB (89%)\nWriting library                          : x264 core 112\n\nAudio\nID                                       : 2\nFormat                                   : AAC\nFormat/Info                              : Advanced Audio Codec\nFormat profile                           : LC\nCodec ID                                 : 40\nDuration                                 : 1h 41mn\nBit rate mode                            : Variable\nBit rate                                 : 384 Kbps\nMaximum bit rate                         : 715 Kbps\nChannel(s)                               : 6 channels\nChannel positions                        : Front: L C R, Side: L R, LFE\nSampling rate                            : 48.0 KHz\nCompression mode                         : Lossy\nDelay relative to video                  : 83ms\nStream size                              : 278 MiB (11%)\nLanguage                                 : English\n\nEnjoy...\n\nRequested by aartje80.\n\nComing up soon: Titanic, Batman Begins, Harvey, Arachnophobia and more...","torrent":{"xt":"urn:btih:e0cac6f3811ccd6bd25eb9af9e2f728c2e81cf61","amp;dn":"Cradle+2+the+Grave-720p+MP4+AAC+x264+BRRip+2003-CC","amp;tr":["udp%3A%2F%2Ftracker.openbittorrent.com%3A80","udp%3A%2F%2Fopen.demonii.com%3A1337","udp%3A%2F%2Ftracker.coppersurfer.tk%3A6969","udp%3A%2F%2Fexodus.desync.com%3A6969"],"infoHash":"e0cac6f3811ccd6bd25eb9af9e2f728c2e81cf61","infoHashBuffer":{"type":"Buffer","data":[224,202,198,243,129,28,205,107,210,94,185,175,158,47,114,140,46,129,207,97]},"announce":[],"urlList":[]}}